<?xml version="1.0" encoding="UTF-8" standalone="no"?><!DOCTYPE svg PUBLIC "-//W3C//DTD SVG 1.1//EN" "http://www.w3.org/Graphics/SVG/1.1/DTD/svg11.dtd"><svg width="72" height="72" viewBox="0 0 72 72" version="1.1" xmlns="http://www.w3.org/2000/svg" xmlns:xlink="http://www.w3.org/1999/xlink" xml:space="preserve" xmlns:serif="http://www.serif.com/" style="fill-rule:evenodd;clip-rule:evenodd;stroke-linecap:round;stroke-linejoin:round;stroke-miterlimit:10;"><g><circle cx="36" cy="36" r="36" style="fill:url(#_Linear1);"/><g id="graduation_hat"><path d="M35.899,48.117l-27.103,-13.771l26.867,-13.535l27.103,13.77l-26.867,13.536Z" style="fill:none;fill-rule:nonzero;stroke:#fff;stroke-width:1.13px;"/><path d="M31.541,34.651l8.198,0" style="fill:none;fill-rule:nonzero;stroke:#fff;stroke-width:1.13px;"/><path d="M35.499,32.107l-0,4.806" style="fill:none;fill-rule:nonzero;stroke:#fff;stroke-width:1.13px;"/><path d="M35.64,34.464l12.807,7.331" style="fill:none;fill-rule:nonzero;stroke:#fff;stroke-width:1.13px;"/><path d="M46.185,53.025l1.253,-3.958l0.781,0l-0,-7.157l-12.32,6.207l-13.121,-6.667l0,12.678c0,0 2.055,3.75 12.721,3.75c10.665,-0 12.72,-3.75 12.72,-3.75l-0,-1.103l-2.034,-0Z" style="fill:none;fill-rule:nonzero;stroke:#fff;stroke-width:1.13px;"/><path d="M49.265,49.067l-1.827,0l-1.253,3.958l4.333,-0l-1.253,-3.958Z" style="fill:none;fill-rule:nonzero;stroke:#fff;stroke-width:1.13px;"/></g></g><defs><linearGradient id="_Linear1" x1="0" y1="0" x2="1" y2="0" gradientUnits="userSpaceOnUse" gradientTransform="matrix(71.6976,71.6976,-71.6976,71.6976,0,0)"><stop offset="0" style="stop-color:#c11f2a;stop-opacity:1"/><stop offset="1" style="stop-color:#2ab6d9;stop-opacity:1"/></linearGradient></defs></svg>