<?xml version="1.0" encoding="UTF-8" standalone="no"?><!DOCTYPE svg PUBLIC "-//W3C//DTD SVG 1.1//EN" "http://www.w3.org/Graphics/SVG/1.1/DTD/svg11.dtd"><svg width="72" height="72" viewBox="0 0 72 72" version="1.1" xmlns="http://www.w3.org/2000/svg" xmlns:xlink="http://www.w3.org/1999/xlink" xml:space="preserve" xmlns:serif="http://www.serif.com/" style="fill-rule:evenodd;clip-rule:evenodd;stroke-linecap:round;stroke-linejoin:round;stroke-miterlimit:10;"><g><circle cx="36" cy="36" r="36" style="fill:url(#_Linear1);"/><g id="B_x26_W_version"><circle cx="40.349" cy="28.732" r="15.69" style="fill:none;stroke:#fff;stroke-width:0.93px;"/><circle cx="40.349" cy="28.732" r="12.437" style="fill:none;stroke:#fff;stroke-width:0.93px;"/><path d="M38.031,19.374c3.169,-0.782 6.657,0.065 9.134,2.542" style="fill:none;fill-rule:nonzero;stroke:#fff;stroke-width:0.93px;"/><path d="M35.228,20.563c0.345,-0.217 0.7,-0.41 1.064,-0.578" style="fill:none;fill-rule:nonzero;stroke:#fff;stroke-width:0.93px;"/><path d="M17.456,55.886c0,0 -1.431,2.064 -3.714,-0.219c-2.283,-2.283 -0.219,-3.714 -0.219,-3.714l10.466,-10.466l3.933,3.933l-10.466,10.466Z" style="fill:none;fill-rule:nonzero;stroke:#fff;stroke-width:0.93px;"/><path d="M30.216,40.831l-1.802,-1.803l-3.442,3.442l1.803,1.803l3.441,-3.442Z" style="fill:none;stroke:#fff;stroke-width:0.93px;"/></g></g><defs><linearGradient id="_Linear1" x1="0" y1="0" x2="1" y2="0" gradientUnits="userSpaceOnUse" gradientTransform="matrix(71.6976,71.6976,-71.6976,71.6976,0,0)"><stop offset="0" style="stop-color:#c11f2a;stop-opacity:1"/><stop offset="1" style="stop-color:#2ab6d9;stop-opacity:1"/></linearGradient></defs></svg>