<?xml version="1.0" encoding="UTF-8" standalone="no"?><!DOCTYPE svg PUBLIC "-//W3C//DTD SVG 1.1//EN" "http://www.w3.org/Graphics/SVG/1.1/DTD/svg11.dtd"><svg width="72" height="72" viewBox="0 0 72 72" version="1.1" xmlns="http://www.w3.org/2000/svg" xmlns:xlink="http://www.w3.org/1999/xlink" xml:space="preserve" xmlns:serif="http://www.serif.com/" style="fill-rule:evenodd;clip-rule:evenodd;stroke-linejoin:round;stroke-miterlimit:2;"><g><circle cx="36" cy="36" r="36" style="fill:url(#_Linear1);"/><path d="M36,16c2.476,0.003 4.513,2.04 4.516,4.516c-0.001,1.482 -0.731,2.872 -1.951,3.713c2.647,1.031 4.532,3.601 4.532,6.61l0,3.226l-6.452,0l0,0.645c0,0.356 0.29,0.645 0.645,0.645l1.29,0c1.068,0 1.936,0.868 1.936,1.935l0,1.29c-0.001,1.061 -0.874,1.934 -1.935,1.936l-1.153,0l0.69,0.69l-0.964,1.59c0.047,0.1 0.081,0.2 0.124,0.3l6.287,0c-1.116,-0.976 -1.758,-2.388 -1.759,-3.87c0.003,-2.83 2.332,-5.158 5.162,-5.161c2.83,0.003 5.157,2.33 5.161,5.16c-0,1.551 -0.7,3.022 -1.904,4c3.283,0.621 5.775,3.507 5.775,6.969l0,5.806l-14.839,-0l0,-7.42c-0.001,-0.53 -0.437,-0.966 -0.967,-0.967l-0.968,-0l0,1.15l-1.802,0.443c-0.08,0.215 -0.17,0.43 -0.269,0.642l0.963,1.59l-3.453,3.454l-1.59,-0.963c-0.214,0.1 -0.428,0.19 -0.642,0.268l-0.443,1.803l-4.883,-0l-0.442,-1.802c-0.218,-0.081 -0.432,-0.17 -0.642,-0.268l-1.59,0.962l-3.454,-3.453l0.963,-1.59c-0.098,-0.21 -0.187,-0.424 -0.268,-0.642l-1.803,-0.443l0,-4.884l1.803,-0.443c0.079,-0.214 0.169,-0.428 0.268,-0.642l-0.963,-1.59l0.69,-0.69l-1.153,0c-1.061,-0.002 -1.933,-0.874 -1.935,-1.935l0,-1.29c0,-1.068 0.868,-1.936 1.935,-1.936l1.291,0c0.354,0 0.645,-0.291 0.645,-0.645l0,-0.645l-6.452,0l0,-3.226c0,-3.009 1.885,-5.579 4.532,-6.61c-1.22,-0.841 -1.95,-2.231 -1.951,-3.713c0.004,-2.476 2.04,-4.512 4.516,-4.515c2.476,0.003 4.513,2.04 4.516,4.516c-0.001,1.482 -0.732,2.872 -1.952,3.713c1.722,0.672 3.117,1.989 3.887,3.67c0.77,-1.681 2.165,-2.997 3.887,-3.67c-1.22,-0.841 -1.95,-2.231 -1.951,-3.713c0.003,-2.476 2.04,-4.513 4.516,-4.516Zm12.903,28.387l-17.097,0c-0.514,0.023 -0.925,0.453 -0.925,0.968c0,0.515 0.411,0.945 0.925,0.968l8.388,0c1.238,0.001 2.257,1.02 2.258,2.258l0,6.129l9.032,0l0,-7.097l1.29,0l0,7.097l1.936,0l0,-4.516c-0.003,-3.184 -2.623,-5.804 -5.807,-5.807Zm-17.925,-6.452l-2.86,0l-0.37,1.514l-0.347,0.11c-0.384,0.123 -0.756,0.278 -1.113,0.465l-0.32,0.167l-1.339,-0.81l-2.021,2.022l0.81,1.338l-0.168,0.32c-0.186,0.357 -0.342,0.73 -0.465,1.114l-0.11,0.346l-1.514,0.372l0,2.86l1.514,0.37l0.109,0.347c0.117,0.368 0.273,0.743 0.466,1.113l0.167,0.32l-0.81,1.339l2.021,2.021l1.338,-0.81l0.322,0.168c0.37,0.192 0.744,0.349 1.114,0.466l0.344,0.11l0.373,1.513l2.86,0l0.37,-1.514l0.346,-0.109c0.384,-0.123 0.756,-0.279 1.113,-0.466l0.322,-0.167l1.338,0.81l2.021,-2.021l-0.81,-1.338l0.167,-0.322c0.193,-0.37 0.35,-0.744 0.467,-1.114l0.11,-0.344l1.512,-0.373l0,-0.14l-2.725,0c-0.602,2.632 -2.962,4.515 -5.662,4.517c-3.184,-0.004 -5.802,-2.622 -5.806,-5.806c0.003,-3.184 2.622,-5.803 5.806,-5.807c1.936,0 3.74,0.985 4.813,2.581l1.503,0l-0.017,-0.034l-0.167,-0.322l0.81,-1.338l-2.022,-2.021l-1.338,0.81l-0.321,-0.167c-0.357,-0.187 -0.729,-0.343 -1.113,-0.466l-0.346,-0.11l-0.372,-1.514Zm-1.43,3.871c-2.477,0.003 -4.513,2.04 -4.516,4.517c0.003,2.476 2.04,4.513 4.516,4.516c1.991,-0.002 3.757,-1.319 4.327,-3.226l-1.371,0c-0.512,1.173 -1.676,1.935 -2.956,1.935c-1.769,-0 -3.225,-1.456 -3.225,-3.225c0,-1.769 1.456,-3.225 3.225,-3.225c0.428,-0 0.851,0.085 1.246,0.25c0.313,-0.162 0.66,-0.248 1.012,-0.251l0.898,0c-0.844,-0.824 -1.977,-1.287 -3.156,-1.29l-0,-0.001Zm-0,2.581c-1.061,0.002 -1.934,0.875 -1.935,1.936c-0,1.067 0.868,1.935 1.935,1.935c0.623,0 1.184,-0.3 1.542,-0.773c-0.916,-0.305 -1.539,-1.165 -1.542,-2.13c-0,-0.337 0.08,-0.653 0.212,-0.94c-0.071,-0.009 -0.14,-0.028 -0.212,-0.028Zm17.42,-9.032c-2.122,0.002 -3.868,1.748 -3.871,3.87c0.002,2.123 1.747,3.869 3.87,3.872c2.123,-0.002 3.87,-1.748 3.872,-3.871c-0.002,-2.123 -1.748,-3.869 -3.871,-3.871Zm-11.613,-1.29l-11.613,0l0,0.645c-0.002,1.061 -0.875,1.934 -1.936,1.935l-1.29,0c-0.354,0 -0.645,0.291 -0.645,0.645l0,1.29c0,0.357 0.289,0.646 0.645,0.646l2.443,0l1.473,-1.472l1.59,0.962c0.213,-0.1 0.428,-0.189 0.642,-0.268l0.443,-1.803l4.883,0l0.443,1.803c0.214,0.08 0.428,0.169 0.642,0.268l1.59,-0.962l1.472,1.472l2.444,0c0.354,0 0.645,-0.291 0.645,-0.645l0,-1.291c0,-0.354 -0.291,-0.645 -0.645,-0.645l-1.29,0c-1.061,-0.001 -1.934,-0.874 -1.936,-1.935l0,-0.645Zm-12.258,-9.033c-3.184,0.003 -5.804,2.623 -5.807,5.807l0,1.935l1.936,0l0,-5.161l1.29,0l0,5.161l5.161,0l0,-5.161l1.29,0l0,5.161l1.936,0l0,-1.934c-0.003,-3.184 -2.622,-5.803 -5.806,-5.807l0,-0.001Zm12.903,0c-3.184,0.004 -5.803,2.623 -5.806,5.807l0,1.935l1.935,0l0,-5.161l1.29,0l0,5.161l5.162,0l0,-5.161l1.29,0l0,5.161l1.935,0l0,-1.934c-0.003,-3.184 -2.622,-5.804 -5.806,-5.808Zm15.484,-1.29c2.476,0.003 4.513,2.04 4.516,4.516c-0.003,2.476 -2.04,4.513 -4.516,4.516l-7.097,0l-0,-4.516c0.003,-2.476 2.04,-4.513 4.516,-4.516l2.581,0Zm0,1.29l-2.58,0c-1.769,0.002 -3.225,1.457 -3.227,3.226l0,3.226l5.807,0c1.769,-0.002 3.224,-1.457 3.226,-3.226c-0.002,-1.769 -1.457,-3.224 -3.226,-3.226Zm-3.226,3.871l-0,1.29l-1.29,0l-0,-1.29l1.29,0Zm2.58,0l-0,1.29l-1.29,0l-0,-1.29l1.29,0Zm2.581,0l-0,1.29l-1.29,0l-0,-1.29l1.29,0Zm-0,-2.58l-0,1.29l-6.451,0l-0,-1.29l6.451,0Zm-30.322,-9.033c-1.769,0.002 -3.224,1.457 -3.226,3.226c0.002,1.769 1.457,3.224 3.226,3.226c1.769,-0.002 3.224,-1.457 3.226,-3.226c-0.002,-1.769 -1.457,-3.224 -3.226,-3.226Zm12.903,0c-1.769,0.002 -3.224,1.457 -3.226,3.226c0.002,1.769 1.457,3.224 3.226,3.226c1.769,-0.002 3.224,-1.457 3.226,-3.226c-0.002,-1.769 -1.457,-3.224 -3.226,-3.226Z" style="fill:#fff;fill-rule:nonzero;"/></g><defs><linearGradient id="_Linear1" x1="0" y1="0" x2="1" y2="0" gradientUnits="userSpaceOnUse" gradientTransform="matrix(71.6976,71.6976,-71.6976,71.6976,0,0)"><stop offset="0" style="stop-color:#c11f2a;stop-opacity:1"/><stop offset="1" style="stop-color:#2ab6d9;stop-opacity:1"/></linearGradient></defs></svg>