<?xml version="1.0" encoding="UTF-8" standalone="no"?><!DOCTYPE svg PUBLIC "-//W3C//DTD SVG 1.1//EN" "http://www.w3.org/Graphics/SVG/1.1/DTD/svg11.dtd"><svg width="72" height="72" viewBox="0 0 72 72" version="1.1" xmlns="http://www.w3.org/2000/svg" xmlns:xlink="http://www.w3.org/1999/xlink" xml:space="preserve" xmlns:serif="http://www.serif.com/" style="fill-rule:evenodd;clip-rule:evenodd;stroke-linecap:round;stroke-linejoin:round;stroke-miterlimit:10;"><g><circle cx="36" cy="36" r="36" style="fill:url(#_Linear1);"/><g><path d="M62.279,51.793c-0,1.346 -1.102,2.447 -2.448,2.447l-48.459,0c-1.346,0 -2.447,-1.101 -2.447,-2.447l-0,-30.838c-0,-1.346 1.101,-2.447 2.447,-2.447l48.459,-0c1.346,-0 2.448,1.101 2.448,2.447l-0,30.838Z" style="fill:none;fill-rule:nonzero;stroke:#fff;stroke-width:0.98px;"/><rect x="8.925" y="24.381" width="53.354" height="6.853" style="fill:#fff;stroke:#fff;stroke-width:1px;stroke-linecap:butt;stroke-miterlimit:2;"/><rect x="13.33" y="36.374" width="13.216" height="13.216" style="fill:none;stroke:#fff;stroke-width:0.98px;"/><path d="M30.217,36.374l28.391,-0" style="fill:none;fill-rule:nonzero;stroke:#fff;stroke-width:0.98px;"/><path d="M30.217,40.779l28.391,0" style="fill:none;fill-rule:nonzero;stroke:#fff;stroke-width:0.98px;"/><path d="M30.217,45.185l28.391,-0" style="fill:none;fill-rule:nonzero;stroke:#fff;stroke-width:0.98px;"/><path d="M30.217,49.59l28.391,-0" style="fill:none;fill-rule:nonzero;stroke:#fff;stroke-width:0.98px;"/></g></g><defs><linearGradient id="_Linear1" x1="0" y1="0" x2="1" y2="0" gradientUnits="userSpaceOnUse" gradientTransform="matrix(71.6976,71.6976,-71.6976,71.6976,0,0)"><stop offset="0" style="stop-color:#c11f2a;stop-opacity:1"/><stop offset="1" style="stop-color:#2ab6d9;stop-opacity:1"/></linearGradient></defs></svg>