<?xml version="1.0" encoding="utf-8"?>
<!-- Generator: Adobe Illustrator 27.3.1, SVG Export Plug-In . SVG Version: 6.00 Build 0)  -->
<svg version="1.1" id="Layer_1" xmlns="http://www.w3.org/2000/svg" xmlns:xlink="http://www.w3.org/1999/xlink" x="0px" y="0px"
	 viewBox="0 0 375 345" style="enable-background:new 0 0 375 345;" xml:space="preserve">
<style type="text/css">
	.st0{fill-rule:evenodd;clip-rule:evenodd;fill:#FFCFA8;}
	.st1{fill-rule:evenodd;clip-rule:evenodd;fill:url(#SVGID_1_);}
</style>
<path id="b1" class="st0" d="M-51.5,111.4L31.1,194c11.5,11.5,27.2,18,43.5,18h43.5c16.3,0,32,6.5,43.5,18l99.1,99.1
	c11.5,11.5,27.2,18,43.5,18h239.3c27.7,0,50.1-22.4,50.1-50.1c0-13.3-5.3-26-14.7-35.4l-53.2-53.2c-7.4-7.4-7.4-19.4,0-26.8
	c3.6-3.6,8.4-5.6,13.4-5.6c10.5,0,19-8.5,19-19c0-5-2-9.9-5.6-13.4L432.4,23.6c-11.5-11.5-27.2-18-43.5-18H244.6
	c-16.3,0-32-6.5-43.5-18l-21.7-21.7c-11.5-11.5-27.2-18-43.5-18H-8.8c-19.5,0-35.4,15.8-35.4,35.4c0,9.4,3.7,18.4,10.4,25l17.7,17.7
	c9.8,9.8,9.8,25.6,0,35.4c-4.7,4.7-11.1,7.3-17.7,7.3c-13.8,0-25,11.2-25,25C-58.8,100.3-56.2,106.7-51.5,111.4L-51.5,111.4z"/>
<linearGradient id="SVGID_1_" gradientUnits="userSpaceOnUse" x1="-494.6221" y1="556.8882" x2="-493.7937" y2="556.8882" gradientTransform="matrix(784.2438 132.991 132.991 -784.2438 313997.0625 502617.5938)">
	<stop  offset="0" style="stop-color:#C11F2A"/>
	<stop  offset="1" style="stop-color:#993E44"/>
</linearGradient>
<path class="st1" d="M162.5,112.6l82.6,82.6c11.5,11.5,27.2,18,43.5,18h43.5c16.3,0,32,6.5,43.5,18l99.1,99.1
	c11.5,11.5,27.2,18,43.5,18h239.3c27.7,0,50.1-22.4,50.1-50.1c0-13.3-5.3-26-14.7-35.4l-53.2-53.2c-7.4-7.4-7.4-19.4,0-26.8
	c3.6-3.6,8.4-5.6,13.4-5.6c10.5,0,19-8.5,19-19c0-5-2-9.9-5.6-13.4L646.4,24.8c-11.5-11.5-27.2-18-43.5-18H458.6
	c-16.3,0-32-6.5-43.5-18L393.4-33c-11.5-11.5-27.2-18-43.5-18H205.2c-19.5,0-35.4,15.8-35.4,35.4c0,9.4,3.7,18.4,10.4,25l17.7,17.7
	c9.8,9.8,9.8,25.6,0,35.4c-4.7,4.7-11.1,7.3-17.7,7.3c-13.8,0-25,11.2-25,25C155.1,101.5,157.8,107.9,162.5,112.6L162.5,112.6z"/>
</svg>
