<?xml version="1.0" encoding="utf-8"?>
<!-- Generator: Adobe Illustrator 27.3.1, SVG Export Plug-In . SVG Version: 6.00 Build 0)  -->
<svg version="1.1" id="Layer_1" xmlns="http://www.w3.org/2000/svg" xmlns:xlink="http://www.w3.org/1999/xlink" x="0px" y="0px"
	 viewBox="0 0 1271 1034" style="enable-background:new 0 0 1271 1034;" xml:space="preserve">
<style type="text/css">
	.st0{opacity:0.33;}
	.st1{fill-rule:evenodd;clip-rule:evenodd;fill:#FFCFA8;}
	.st2{fill-rule:evenodd;clip-rule:evenodd;fill:url(#b_00000141432719307869458870000008228873708823791004_);}
	.st3{fill-rule:evenodd;clip-rule:evenodd;fill:url(#SVGID_1_);}
</style>
<g transform="translate(15)">
	<g class="st0">
		<path id="b_00000111167157187892160490000003457676591565037455_" class="st1" d="M35.3,347.8l134.3,134.3
			c18.8,18.8,44.2,29.3,70.7,29.3h70.7c26.5,0,52,10.5,70.7,29.3l161,161c18.8,18.8,44.2,29.3,70.7,29.3h388.9
			c45,0,81.4-36.5,81.4-81.4c0-21.6-8.6-42.3-23.8-57.6l-86.4-86.4c-12-12-12-31.5,0-43.6c5.8-5.8,13.6-9,21.8-9
			c17,0,30.8-13.8,30.8-30.8c0-8.2-3.2-16-9-21.8L821.7,205.1c-18.8-18.8-44.2-29.3-70.7-29.3H516.5c-26.5,0-52-10.5-70.7-29.3
			l-35.3-35.2C391.8,92.5,366.4,82,339.8,82H104.7c-31.8,0-57.5,25.8-57.5,57.5c0,15.3,6.1,29.9,16.8,40.7L92.8,209
			c15.9,15.9,15.9,41.6,0,57.5c-7.6,7.6-18,11.9-28.8,11.9c-22.5,0-40.7,18.2-40.7,40.7C23.3,329.9,27.6,340.2,35.3,347.8
			L35.3,347.8z"/>
	</g>
	<g>
		
			<linearGradient id="b_00000111162672503672407320000018375958742360409477_" gradientUnits="userSpaceOnUse" x1="57.53" y1="631.5" x2="1117.8521" y2="631.5">
			<stop  offset="0" style="stop-color:#C11F2A"/>
			<stop  offset="1" style="stop-color:#993E44"/>
		</linearGradient>
		<path id="b" style="fill-rule:evenodd;clip-rule:evenodd;fill:url(#b_00000111162672503672407320000018375958742360409477_);" d="
			M69.4,572.8l134.3,134.3c18.8,18.8,44.2,29.3,70.7,29.3h70.7c26.5,0,52,10.5,70.7,29.3l161,161c18.8,18.8,44.2,29.3,70.7,29.3
			h388.9c45,0,81.4-36.5,81.4-81.4c0-21.6-8.6-42.3-23.8-57.6l-86.4-86.4c-12-12-12-31.5,0-43.6c5.8-5.8,13.6-9,21.8-9
			c17,0,30.8-13.8,30.8-30.8c0-8.2-3.2-16-9-21.8L855.8,430.1c-18.8-18.8-44.2-29.3-70.7-29.3H550.7c-26.5,0-52-10.5-70.7-29.3
			l-35.3-35.2C426,317.5,400.6,307,374,307H138.9c-31.8,0-57.5,25.8-57.5,57.5c0,15.3,6.1,29.9,16.8,40.7L127,434
			c15.9,15.9,15.9,41.6,0,57.5c-7.6,7.6-18,11.9-28.8,11.9c-22.5,0-40.7,18.2-40.7,40.7C57.5,554.9,61.8,565.2,69.4,572.8
			L69.4,572.8z"/>
	</g>
	<g>
		<path id="b_00000084505412650799191740000008586324714313009308_" class="st1" d="M69.4,572.8l134.3,134.3
			c18.8,18.8,44.2,29.3,70.7,29.3h70.7c26.5,0,52,10.5,70.7,29.3l161,161c18.8,18.8,44.2,29.3,70.7,29.3h388.9
			c45,0,81.4-36.5,81.4-81.4c0-21.6-8.6-42.3-23.8-57.6l-86.4-86.4c-12-12-12-31.5,0-43.6c5.8-5.8,13.6-9,21.8-9
			c17,0,30.8-13.8,30.8-30.8c0-8.2-3.2-16-9-21.8L855.8,430.1c-18.8-18.8-44.2-29.3-70.7-29.3H550.7c-26.5,0-52-10.5-70.7-29.3
			l-35.3-35.2C426,317.5,400.6,307,374,307H138.9c-31.8,0-57.5,25.8-57.5,57.5c0,15.3,6.1,29.9,16.8,40.7L127,434
			c15.9,15.9,15.9,41.6,0,57.5c-7.6,7.6-18,11.9-28.8,11.9c-22.5,0-40.7,18.2-40.7,40.7C57.5,554.9,61.8,565.2,69.4,572.8
			L69.4,572.8z"/>
	</g>
	
		<linearGradient id="SVGID_1_" gradientUnits="userSpaceOnUse" x1="-61.9608" y1="900.8248" x2="-60.965" y2="900.5489" gradientTransform="matrix(1060.322 0 0 -649 65888.4922 584882)">
		<stop  offset="0" style="stop-color:#C11F2A"/>
		<stop  offset="1" style="stop-color:#993E44"/>
	</linearGradient>
	<path class="st3" d="M207.4,265.8l134.3,134.3c18.8,18.8,44.2,29.3,70.7,29.3h70.7c26.5,0,52,10.5,70.7,29.3l161,161
		c18.8,18.8,44.2,29.3,70.7,29.3h388.9c45,0,81.4-36.5,81.4-81.4c0-21.6-8.6-42.3-23.8-57.6l-86.4-86.4c-12-12-12-31.5,0-43.6
		c5.8-5.8,13.6-9,21.8-9c17,0,30.8-13.8,30.8-30.8c0-8.2-3.2-16-9-21.8L993.8,123.1c-18.8-18.8-44.2-29.3-70.7-29.3H688.7
		c-26.5,0-52-10.5-70.7-29.3l-35.3-35.2C564,10.5,538.6,0,512,0H276.9c-31.8,0-57.5,25.8-57.5,57.5c0,15.3,6.1,29.9,16.9,40.7
		L265,127c15.9,15.9,15.9,41.6,0,57.5c-7.6,7.6-18,11.9-28.8,11.9c-22.5,0-40.7,18.2-40.7,40.7C195.5,247.9,199.8,258.2,207.4,265.8
		L207.4,265.8z"/>
</g>
</svg>
